/* XPM */
static char *logviewer_png[] = {
/* columns rows colors chars-per-pixel */
"32 32 145 2 ",
"   c #B02259",
".  c #92306A",
"X  c #8D2F70",
"o  c #B23361",
"O  c #8B427B",
"+  c #CD645C",
"@  c #CB4667",
"#  c #C35F64",
"$  c #D67E70",
"%  c #F2893D",
"&  c #998977",
"*  c #B78162",
"=  c #F29344",
"-  c #EB836A",
";  c #D1AC6C",
":  c #EFA77E",
">  c #013F99",
",  c #703983",
"<  c #02429A",
"1  c #09469D",
"2  c #0C499E",
"3  c #104A9F",
"4  c #0E4AA0",
"5  c #134DA1",
"6  c #1A53A4",
"7  c #1E57A8",
"8  c #255AA7",
"9  c #245BA9",
"0  c #295EA9",
"q  c #3A51A4",
"w  c #2E63AC",
"e  c #3163AC",
"r  c #3769AE",
"t  c #3B6AAF",
"y  c #3564B3",
"u  c #3D6DB1",
"i  c #7F6B9C",
"p  c #4157A4",
"a  c #5E5BA4",
"s  c #5062AD",
"d  c #5B77A8",
"f  c #4472B4",
"g  c #4875B6",
"h  c #4E7AB8",
"j  c #507BB9",
"k  c #7476B1",
"l  c #8E598B",
"z  c #C36788",
"x  c #CD7D81",
"c  c #DC7E94",
"v  c #E26C8A",
"b  c #5680BC",
"n  c #5C83BC",
"m  c #6685AD",
"M  c #45A4BC",
"N  c #3098CA",
"B  c #12A8E3",
"V  c #18AAE0",
"C  c #6289C0",
"Z  c #698DC2",
"A  c #6D93C8",
"S  c #7092C5",
"D  c #7898C7",
"F  c #7496C8",
"G  c #7C9CCA",
"H  c #7FA0CF",
"J  c #B39C98",
"K  c #8C88AA",
"L  c #858CB8",
"P  c #BC8DB1",
"I  c #A7A0AE",
"U  c #BCB3A4",
"Y  c #D4999B",
"T  c #E98889",
"R  c #DAB08B",
"E  c #C9B394",
"W  c #D1B999",
"Q  c #EEA08E",
"!  c #F0A695",
"~  c #F3B193",
"^  c #CCBBAE",
"/  c #D2BFA2",
"(  c #D7B7B9",
")  c #E4A1AF",
"_  c #ECA2B2",
"`  c #EDA7B8",
"'  c #F0B4B4",
"]  c #EBD483",
"[  c #DED0BC",
"{  c #FBDFAE",
"}  c #FCE2BD",
"|  c #8C97C0",
" . c #83A2CE",
".. c #9BAECF",
"X. c #83A6D7",
"o. c #87A8D7",
"O. c #8EA9D1",
"+. c #87A8D8",
"@. c #8AAAD9",
"#. c #92ACD3",
"$. c #9AB2D5",
"%. c #B9B2C5",
"&. c #A1B7D7",
"*. c #A7BAD7",
"=. c #A9BFDF",
"-. c #A7BFE1",
";. c #F1B9C7",
":. c #AEC2DE",
">. c #B4C5DE",
",. c #AEC3E0",
"<. c #B2C4E0",
"1. c #B6C8E2",
"2. c #BACBE3",
"3. c #C8C9CA",
"4. c #F6CDC9",
"5. c #ECDBCC",
"6. c #F8D0C6",
"7. c #F5CAD5",
"8. c #F9DCD2",
"9. c #FCE5C3",
"0. c #E8E4DF",
"q. c #FBECD5",
"w. c #F7EBDC",
"e. c #C0CEE5",
"r. c #C2D1E6",
"t. c #CAD7EA",
"y. c #CEDBEC",
"u. c #D1DCEC",
"i. c #D7E1EF",
"p. c #DBE3EF",
"a. c #DAE3F0",
"s. c #E7EAEF",
"d. c #FCEBE6",
"f. c #FEF5E7",
"g. c #E0E7F0",
"h. c #E4EAF3",
"j. c #E9EDF3",
"k. c #FBECF0",
"l. c #EDF1F6",
"z. c #F5F5F5",
"x. c #FBF3F2",
"c. c #FEFAF4",
"v. c #F3F6FA",
"b. c #F6F8FB",
"n. c #FEFEFE",
/* pixels */
"n.n.n.n.n.n.n.n.n.n.n.n.n.n.n.n.n.n.n.n.n.n.n.n.n.n.n.n.n.n.n.n.",
"n.n.n.n.n.n.n.n.v.t.<.2.a.n.n.n.n.n.n.n.n.n.n.n.n.n.n.n.n.n.n.n.",
"n.n.n.n.n.n.r.h 1 < < < < 9  .u.y.y.u.u.u.j.n.n.n.n.n.n.n.n.n.n.",
"n.n.n.n.b.C < < 0 C G F g 2 < < h #.#.#.#.e u.n.n.n.n.n.n.n.n.n.",
"n.n.n.b.f < 0 2.n.n.n.n.n.j.A 4 4 ,.n.n.n.e 5 u.n.n.n.n.n.n.n.n.",
"n.n.n.C < f v.n.c.q.9.} q.x.d.2.5 1 u.n.n.e < 3 u.n.n.n.n.n.n.n.",
"n.n.2.< 0 v.b.w.q.K q p J ~ ! 6...> f n.n.e < < 5 u.n.n.n.n.n.n.",
"n.n.h < 2.n.0.q.%.y B B d - Q d.n.u > t.n.e > < < 5 t.n.n.n.n.n.",
"n.b.1 8 n.n.[ f.k V & * m $ ' c.n.&.< D n.u 2 1 3 3 6 a.n.n.n.n.",
"n.t.< C b.z./ c.s M % ; I L { n.n.h.< g n.c.n.n.n.n.:.<.n.n.n.n.",
"n.2.< G n.z.W c.a M = ] 5.| { n.n.v.1 e n.n.n.n.n.b.>.,.n.n.n.n.",
"n.e.< F b.z.E 4.  N + : # o T n.n.l.< r n.n.n.n.n.n.:.:.n.n.n.n.",
"n.h.< g c.b.U ~ P . i | O x T 7.n.r.< f :.=.=.:.i.n.>.:.n.n.n.n.",
"n.n.8 < j.n.3.# ' z X , l Y ` k.b.F <  .y.u.y.y.j.b.:.:.n.n.n.n.",
"n.n. .< S n.z.@ R 8.) c ' _ v x.h.4 3 l.n.b.b.n.n.b.:.:.n.n.n.n.",
"n.n.v.6 < <.n.;.3.U ^ ( z.7.n.b.u < G c.b.n.c.b.n.c.:.<.n.n.n.n.",
"n.n.n.2.< 1 $.b.b.c.b.z.b.c.g.u < < 6 1.t.y.y.t.j.n.:.:.n.n.n.n.",
"n.n.n.n.>.2 < t &.p.z.z.r.S 2 < < < < 4 n X.=.=.i.b.:.:.n.n.n.n.",
"n.n.n.n.n.u.w < < < < < < < 3 G 6 < < < < 1 >.n.b.n.:.,.n.n.n.n.",
"n.n.n.n.n.n.S 2.D g e t n $.l.b.u.6 < < < < 4 >.c.b.*.>.n.n.n.n.",
"n.n.n.n.n.n.S j.b.j.h.j.h.h.h.h.h.O.< < < < < 5 >.b.:.<.n.n.n.n.",
"n.n.n.n.n.n.S j.c.-.H X.X.X.X.X.+.A < < < < < < 5 >.:.<.n.n.n.n.",
"n.n.n.n.n.n.S j.z.v.v.v.z.z.z.z.z.v.>.1 > < < < 1 6 Z ,.n.n.n.n.",
"n.n.n.n.n.n.S j.z.z.z.z.z.z.z.z.z.z.z.>.1 < < > < 1 5 $.n.n.n.n.",
"n.n.n.n.n.n.S j.z.z.c.z.z.z.z.c.z.z.c.z.>.1 < < < < 2 6 2.n.n.n.",
"n.n.n.n.n.n.S s.z.=.+.+.@.@.o.o.@.@.+.O.@.A < < < < < 6 7 2.n.n.",
"n.n.n.n.n.n.S s.z.p.u.t.y.u.u.y.u.u.u.u.u.u.*.1 < < < < 0 6 p.n.",
"n.n.n.n.n.n.S s.z.z.z.z.z.z.z.z.z.z.z.z.z.z.z.>.< < < < 4 7 <.n.",
"n.n.n.n.n.n.#.*.s.s.s.s.s.s.s.h.s.s.s.s.s.h.s.s.*.< < < 4 j n.n.",
"n.n.n.n.n.n.n.$.S S S S S S S S S S S S S S S S F A 1 < b n.n.n.",
"n.n.n.n.n.n.n.n.n.n.n.n.n.n.n.n.n.n.n.n.n.n.n.n.n.n.a.:.n.n.n.n.",
"n.n.n.n.n.n.n.n.n.n.n.n.n.n.n.n.n.n.n.n.n.n.n.n.n.n.n.n.n.n.n.n."
};
