/* XPM */
static char *multi_stars_png[] = {
/* columns rows colors chars-per-pixel */
"32 32 14 1 ",
"  c None",
". c #FDD04F",
"X c #FDD14F",
"o c #FED14F",
"O c #FED24F",
"+ c #FDCF50",
"@ c #FDD050",
"# c #FDD150",
"$ c #FED050",
"% c #FED150",
"& c #FED051",
"* c #FED250",
"= c #FFD250",
"- c #FED251",
/* pixels */
"                           #    ",
"                          +#    ",
"                          o#    ",
"                         ####   ",
"                      o########o",
"                       o####### ",
"           #o           ######  ",
"          ###           +#####  ",
"          o##           o#o###  ",
"          ####          $#$##+  ",
"         o###o          oo   #  ",
"         +####                  ",
"         #####o                 ",
"        o#####o                 ",
"   ###$$#######$####            ",
"######o###############o         ",
"o#####################o         ",
" ####################o          ",
"  ###################           ",
"   o################            ",
"    ########o######             ",
"     o###+##$######             ",
"     ####o   o####              ",
"      ###  # #####              ",
"     $o##     ####              ",
"     o###### #####              ",
"     ######o +####              ",
"     ######  ######             ",
"    o####$   ######             ",
"    o###o     o####             ",
"    o#o#        o#+             ",
"    $#           ##             "
};
